<?xml version="1.0" encoding="UTF-8" standalone="no"?>
<!-- Created with Inkscape (http://www.inkscape.org/) -->

<svg
   width="210mm"
   height="210mm"
   viewBox="0 0 210 210"
   version="1.1"
   id="svg518"
   inkscape:version="1.2.1 (9c6d41e410, 2022-07-14, custom)"
   sodipodi:docname="Logo_seul.svg"
   xmlns:inkscape="http://www.inkscape.org/namespaces/inkscape"
   xmlns:sodipodi="http://sodipodi.sourceforge.net/DTD/sodipodi-0.dtd"
   xmlns="http://www.w3.org/2000/svg"
   xmlns:svg="http://www.w3.org/2000/svg">
  <sodipodi:namedview
     id="namedview520"
     pagecolor="#ffffff"
     bordercolor="#666666"
     borderopacity="1.0"
     inkscape:showpageshadow="2"
     inkscape:pageopacity="0.0"
     inkscape:pagecheckerboard="0"
     inkscape:deskcolor="#d1d1d1"
     inkscape:document-units="mm"
     showgrid="false"
     inkscape:zoom="0.27433372"
     inkscape:cx="470.2302"
     inkscape:cy="-287.97043"
     inkscape:window-width="1896"
     inkscape:window-height="1003"
     inkscape:window-x="12"
     inkscape:window-y="38"
     inkscape:window-maximized="1"
     inkscape:current-layer="layer1" />
  <defs
     id="defs515" />
  <g
     inkscape:label="Calque 1"
     inkscape:groupmode="layer"
     id="layer1">
    <g
       id="g192"
       transform="scale(0.79096008,0.82063306)">
	<g
   id="g190">
		<path
   class="st0"
   d="m 160.9,146.2 c 3.5,0 6,2.4 6,5.7 0,3.3 -2.5,5.7 -6.1,5.7 -3.5,0 -6,-2.4 -6,-5.6 -0.1,-3.5 2.5,-5.9 6.1,-5.8 z"
   id="path184"
   style="fill:#0a9e85" />

		<path
   class="st0"
   d="M 132.8,0 C 59.5,0 0,59.5 0,132.8 c 0,21.8 5.3,42.4 14.6,60.6 l 4.4,-3 c 12,-7.5 45.4,-27.9 60.9,-33.6 -3.6,-11.3 0.1,-20.9 2.2,-25 C 71.9,129 64.9,122.7 59.3,114.1 49.7,99.3 43.7,75.1 42.1,61.2 l 0.4,0.1 c -0.7,-7.2 2.5,-9.8 6.9,-5.9 0,0 0,0 0,0 1.8,9.5 27.3,50.2 58.8,66 0.1,0 0.2,0.1 0.3,0.1 0.2,0 0.4,-0.1 0.5,-0.3 0.2,-0.3 0.1,-0.6 -0.2,-0.8 C 89.5,109.2 57.3,66 58.7,61.5 c 7.2,5.4 29.7,25.3 38.8,31.2 0.5,0.3 1.1,0.7 1.8,1.2 13.3,8.7 21,12.6 25,14.1 L 106.1,94.6 C 101.2,91.5 83.7,74.1 82.7,73.1 82,65.3 84.2,52 86.6,43.6 c 0.2,-0.6 0.3,-1.2 0.5,-1.8 1.4,-3.8 4,-6.6 7.3,-4.1 3.2,4.1 15.5,15.9 25.6,25.6 10.6,10.1 34,33.1 37.5,37.4 0,0 -6,-0.3 -12.4,0.9 -4.4,0.8 -9.1,2.4 -12.3,5.2 4.2,-1.4 8.4,-2.4 12.3,-3 6.2,-0.8 11.3,-0.5 13.2,-0.4 10.4,1 19.9,5.3 28.7,12.9 13.8,11.9 23.4,30.1 31.2,44.7 1.4,2.6 2.8,5.2 4.1,7.6 v 0 0 c 0,0.1 0.1,0.1 0.1,0.2 0.1,0.3 0.3,0.5 0.4,0.7 0,0 0,0 0,0 0.2,1.1 -1.3,0.3 -2.3,0.5 0,0 0,0 -0.1,0 -3.1,0.2 -5.2,2.4 -5.2,5.3 0,3.1 2.4,5.3 5.7,5.3 0.3,0 0.5,-0.1 0.8,-0.1 h -0.1 c 1.8,-0.4 1.6,0.6 1.2,1.4 0,0 0,0.1 -0.1,0.1 0,0.1 -0.1,0.2 -0.1,0.3 0,0 0,0 0,0 -5.9,11.3 -18,20.8 -33.8,26.2 -3.4,1.2 -6.8,2.1 -10.3,2.7 0,0 0,0.1 0,0.1 -5.7,0.6 -19.7,1.5 -30.8,-3.3 -0.3,-0.1 -0.6,0 -0.8,0.2 -0.2,0.2 -0.1,0.6 0.1,0.8 6,5.2 15.3,6.4 22.9,6.4 4,0 7.6,-0.3 9.9,-0.7 0,0 0.1,0 0.1,0 4.2,11.2 4,25.5 2.7,37.2 l -0.8,4 c 49,-19.5 83.7,-67.4 83.7,-123.4 C 265.6,59.5 206.1,0 132.8,0 Z m 83.5,114.1 c -4.5,0 -8.2,-3.7 -8.2,-8.2 0,-4.5 3.7,-8.2 8.2,-8.2 4.5,0 8.2,3.7 8.2,8.2 0,4.6 -3.7,8.2 -8.2,8.2 z"
   id="path186"
   style="fill:#0a9e85" />

		<path
   class="st0"
   d="m 160.7,157.5 c 3.6,0 6.1,-2.3 6.1,-5.7 0,-3.3 -2.5,-5.7 -6,-5.7 -3.6,0 -6.2,2.4 -6.1,5.7 0.1,3.3 2.6,5.7 6,5.7 z"
   id="path188"
   style="fill:#0a9e85" />

	</g>

</g>
  </g>
</svg>
