<?xml version="1.0" encoding="UTF-8" standalone="no"?>
<!-- Generator: Adobe Illustrator 27.1.0, SVG Export Plug-In . SVG Version: 6.00 Build 0)  -->

<svg
   version="1.1"
   id="Calque_1"
   x="0px"
   y="0px"
   viewBox="0 0 962.4 262.99999"
   xml:space="preserve"
   sodipodi:docname="logo_slogan.svg"
   width="962.40002"
   height="263"
   inkscape:version="1.2.2 (b0a8486541, 2022-12-01)"
   xmlns:inkscape="http://www.inkscape.org/namespaces/inkscape"
   xmlns:sodipodi="http://sodipodi.sourceforge.net/DTD/sodipodi-0.dtd"
   xmlns="http://www.w3.org/2000/svg"
   xmlns:svg="http://www.w3.org/2000/svg"><defs
   id="defs108"><rect
     x="250.23456"
     y="228.67609"
     width="708.04315"
     height="61.536804"
     id="rect397" /><rect
     x="245.89455"
     y="223.31833"
     width="707.21747"
     height="61.025948"
     id="rect391" /></defs><sodipodi:namedview
   id="namedview106"
   pagecolor="#ffffff"
   bordercolor="#666666"
   borderopacity="1.0"
   inkscape:showpageshadow="2"
   inkscape:pageopacity="0.0"
   inkscape:pagecheckerboard="0"
   inkscape:deskcolor="#d1d1d1"
   showgrid="false"
   inkscape:zoom="1.060954"
   inkscape:cx="502.37805"
   inkscape:cy="83.886766"
   inkscape:window-width="1896"
   inkscape:window-height="1003"
   inkscape:window-x="12"
   inkscape:window-y="1118"
   inkscape:window-maximized="1"
   inkscape:current-layer="g3295" />
<style
   type="text/css"
   id="style71">
	.st0{fill:#0A9E85;}
</style>
<g
   id="g81">
	<g
   id="g79">
		<path
   class="st0"
   d="m 160.9,146.2 c 3.5,0 6,2.4 6,5.7 0,3.3 -2.5,5.7 -6.1,5.7 -3.5,0 -6,-2.4 -6,-5.6 -0.1,-3.5 2.5,-5.9 6.1,-5.8 z"
   id="path73" />
		<path
   class="st0"
   d="M 132.8,0 C 59.5,0 0,59.5 0,132.8 c 0,21.8 5.3,42.4 14.6,60.6 l 4.4,-3 c 12,-7.5 45.4,-27.9 60.9,-33.6 -3.6,-11.3 0.1,-20.9 2.2,-25 C 71.9,129 64.9,122.7 59.3,114.1 49.7,99.3 43.7,75.1 42.1,61.2 l 0.4,0.1 c -0.7,-7.2 2.5,-9.8 6.9,-5.9 0,0 0,0 0,0 1.8,9.5 27.3,50.2 58.8,66 0.1,0 0.2,0.1 0.3,0.1 0.2,0 0.4,-0.1 0.5,-0.3 0.2,-0.3 0.1,-0.6 -0.2,-0.8 C 89.5,109.2 57.3,66 58.7,61.5 c 7.2,5.4 29.7,25.3 38.8,31.2 0.5,0.3 1.1,0.7 1.8,1.2 13.3,8.7 21,12.6 25,14.1 L 106.1,94.6 C 101.2,91.5 83.7,74.1 82.7,73.1 82,65.3 84.2,52 86.6,43.6 c 0.2,-0.6 0.3,-1.2 0.5,-1.8 1.4,-3.8 4,-6.6 7.3,-4.1 3.2,4.1 15.5,15.9 25.6,25.6 10.6,10.1 34,33.1 37.5,37.4 0,0 -6,-0.3 -12.4,0.9 -4.4,0.8 -9.1,2.4 -12.3,5.2 4.2,-1.4 8.4,-2.4 12.3,-3 6.2,-0.8 11.3,-0.5 13.2,-0.4 10.4,1 19.9,5.3 28.7,12.9 13.8,11.9 23.4,30.1 31.2,44.7 1.4,2.6 2.8,5.2 4.1,7.6 v 0 0 c 0,0.1 0.1,0.1 0.1,0.2 0.1,0.3 0.3,0.5 0.4,0.7 0,0 0,0 0,0 0.2,1.1 -1.3,0.3 -2.3,0.5 0,0 0,0 -0.1,0 -3.1,0.2 -5.2,2.4 -5.2,5.3 0,3.1 2.4,5.3 5.7,5.3 0.3,0 0.5,-0.1 0.8,-0.1 h -0.1 c 1.8,-0.4 1.6,0.6 1.2,1.4 0,0 0,0.1 -0.1,0.1 0,0.1 -0.1,0.2 -0.1,0.3 0,0 0,0 0,0 -5.9,11.3 -18,20.8 -33.8,26.2 -3.4,1.2 -6.8,2.1 -10.3,2.7 0,0 0,0.1 0,0.1 -5.7,0.6 -19.7,1.5 -30.8,-3.3 -0.3,-0.1 -0.6,0 -0.8,0.2 -0.2,0.2 -0.1,0.6 0.1,0.8 6,5.2 15.3,6.4 22.9,6.4 4,0 7.6,-0.3 9.9,-0.7 0,0 0.1,0 0.1,0 4.2,11.2 4,25.5 2.7,37.2 l -0.8,4 c 49,-19.5 83.7,-67.4 83.7,-123.4 C 265.6,59.5 206.1,0 132.8,0 Z m 83.5,114.1 c -4.5,0 -8.2,-3.7 -8.2,-8.2 0,-4.5 3.7,-8.2 8.2,-8.2 4.5,0 8.2,3.7 8.2,8.2 0,4.6 -3.7,8.2 -8.2,8.2 z"
   id="path75" />
		<path
   class="st0"
   d="m 160.7,157.5 c 3.6,0 6.1,-2.3 6.1,-5.7 0,-3.3 -2.5,-5.7 -6,-5.7 -3.6,0 -6.2,2.4 -6.1,5.7 0.1,3.3 2.6,5.7 6,5.7 z"
   id="path77" />
	</g>
</g>
<g
   id="g103">
	<g
   id="g101">
		<path
   class="st0"
   d="m 734.1,127.6 c 0,-21 0.2,-42 -0.1,-63 -0.1,-6.3 2.2,-8.7 8.4,-8.4 7.5,0.4 15,0 22.4,0.2 16.2,0.3 27.5,10.3 28.6,26.6 0.9,13.2 0.4,26.5 0.5,39.8 0.1,15 0.1,29.9 0,44.9 -0.2,21.1 -11.2,32 -32.2,32.2 -6.3,0.1 -12.6,-0.3 -18.8,0.1 -6.6,0.4 -9,-2 -8.8,-8.7 0.2,-21.2 0,-42.4 0,-63.7 z m 15.3,0.6 c 0,16.9 0.1,33.8 -0.1,50.6 -0.1,4.9 1.5,7.3 6.7,6.7 2.1,-0.2 4.3,0 6.5,0 10.2,-0.1 15.8,-4.4 15.9,-14.6 0.4,-28.7 0.4,-57.4 -0.1,-86.1 -0.1,-9.4 -5.7,-13.7 -15,-13.9 -2.2,0 -4.4,0.2 -6.5,-0.1 -5.8,-0.8 -7.6,1.8 -7.5,7.4 0.2,16.7 0.1,33.3 0.1,50 z"
   id="path83" />
		<path
   class="st0"
   d="m 410.4,128.2 c 0,-21.2 0.2,-42.4 -0.1,-63.6 -0.1,-6.3 2.1,-8.7 8.4,-8.3 7.7,0.4 15.4,0 23.1,0.2 14.2,0.4 25.7,10.2 26.9,24.2 1,10.7 0.8,21.7 -0.1,32.4 -0.4,4.6 -3.4,9.4 -6.2,13.4 -2.1,3 -3.3,5.1 -0.3,8 6.1,5.8 7.3,13.4 7.3,21.2 0.1,12.1 -0.2,24.1 0.1,36.2 0.1,5.8 -1.7,8.2 -7.9,8.1 -5.9,-0.1 -7.5,-2.5 -7.4,-7.9 0.2,-12 0.2,-24.1 -0.1,-36.1 -0.3,-14.8 -10.9,-22.5 -24.9,-18 -1.9,0.6 -3.7,4.7 -3.8,7.2 -0.4,14.9 -0.2,29.9 -0.2,44.8 0,5.1 0.9,9.9 -7.3,10.1 -8.7,0.1 -7.7,-5 -7.7,-10.4 0.2,-20.5 0.2,-41 0.2,-61.5 z m 44,-30.9 c -0.1,0 -0.2,0 -0.3,0 0,-4.3 0.4,-8.7 -0.1,-13 -1,-9 -5.9,-13.2 -14.9,-13.4 -2.4,0 -4.8,0.2 -7.2,0 -4.6,-0.4 -6.6,1.4 -6.6,6.2 0.1,13.5 0.1,27 0,40.5 0,4.5 2.1,5.7 6.2,5.9 17.5,1.1 22.6,-3.6 22.9,-21.2 0.1,-1.7 0,-3.4 0,-5 z"
   id="path85" />
		<path
   class="st0"
   d="m 712.8,128.4 c 0,14.2 0.3,28.5 -0.1,42.7 -0.6,22.7 -19.3,35.8 -40.3,28.7 -11.7,-3.9 -19.1,-13.8 -19.3,-27.7 -0.4,-29.2 -0.4,-58.3 0,-87.5 0.3,-18.1 12.3,-29.5 29.7,-29.5 17.6,0 29.2,11 29.8,29.3 0.6,14.6 0.2,29.3 0.2,44 0,0 0,0 0,0 z M 668.5,128 c 0,14.4 -0.2,28.9 0.1,43.3 0.2,10.2 6,16.4 14.5,16.3 8.3,-0.1 14.2,-6 14.3,-15.9 0.3,-28.9 0.3,-57.8 0,-86.7 -0.1,-10.3 -6,-16.3 -14.6,-16.2 -8.6,0.1 -14,6.1 -14.3,16.5 -0.2,14.2 0,28.4 0,42.7 z"
   id="path87" />
		<path
   class="st0"
   d="m 491.1,127.4 c 0,-14 -0.3,-28 0.1,-41.9 0.6,-22.9 19.8,-36.2 40.9,-28.8 11.5,4.1 18.7,14.1 18.8,28.1 0.3,28.9 0.4,57.9 0,86.8 -0.3,18.3 -12.2,29.6 -29.5,29.7 -17.9,0.1 -29.2,-11.1 -30.2,-29.8 0,-0.5 0,-1 0,-1.4 -0.1,-14.3 -0.1,-28.5 -0.1,-42.7 z m 44.4,0.5 c 0,0 0,0 0,0 0,-14.7 0.3,-29.4 -0.1,-44.1 -0.2,-9.3 -6.1,-15 -14.2,-15 -8.1,-0.1 -14.3,5.5 -14.5,14.8 -0.4,29.6 -0.3,59.2 -0.1,88.9 0,6.7 3,12.2 10,14.3 10.1,3 18.4,-3.3 18.7,-14.8 0.5,-14.7 0.2,-29.4 0.2,-44.1 z"
   id="path89" />
		<path
   class="st0"
   d="m 572.9,128 c 0,-14.7 -0.3,-29.4 0.1,-44.1 0.6,-23.6 24.9,-36.7 45.4,-25 9.2,5.3 13.2,13.7 14,23.9 0.3,3.4 -0.1,6.8 0.1,10.1 0.4,5.5 -1,8.6 -7.4,8.6 -6.4,0 -7.9,-2.9 -7.6,-8.5 0.2,-3.8 -0.3,-7.7 -0.8,-11.5 -1.1,-7.8 -6.1,-12.3 -13.4,-12.6 -7.3,-0.3 -12.8,3.9 -14.4,11.5 -0.7,3.5 -1.1,7.2 -1.1,10.8 -0.1,24.8 -0.1,49.7 0,74.5 0,3.8 0.4,7.7 1.3,11.5 1.5,6.6 7.2,10.7 13.7,10.6 6.9,-0.1 12.6,-4.6 13.6,-11.6 0.8,-5.2 1.1,-10.6 1,-15.8 -0.1,-5.8 3.2,-6.7 7.9,-6.7 4.7,0 7.4,1.6 7.1,6.7 -0.4,6.2 0.2,12.6 -1.1,18.7 -3.2,15.6 -15.9,23.9 -32.9,22.4 -13.8,-1.2 -24.8,-12.4 -25.3,-27 -0.5,-15.4 -0.1,-30.9 -0.1,-46.3 0,-0.2 -0.1,-0.2 -0.1,-0.2 z"
   id="path91" />
		<path
   class="st0"
   d="m 329.8,127.8 c 0,-14 -0.1,-28 0,-42 0.1,-18.9 11.7,-30.8 29.8,-30.8 18.1,0 29.5,11.8 29.8,30.8 0,2.4 -0.2,4.8 0,7.2 0.5,5.6 -1.2,8.4 -7.6,8.4 -6.5,0 -7.6,-3.3 -7.4,-8.6 0.1,-4.1 -0.2,-8.2 -1,-12.2 -1.4,-7.6 -6.8,-12 -14.1,-11.8 -6.9,0.1 -12.2,4.5 -13.6,11.7 -0.6,3.1 -1,6.2 -1,9.3 -0.1,25.6 -0.1,51.1 0,76.7 0,3.4 0.4,6.8 1.1,10 1.4,6.7 6.8,10.9 13.4,11.1 6.9,0.2 12.8,-4.1 14,-11.1 0.9,-5.4 1.2,-11 1.2,-16.5 0,-5.3 2.8,-6.5 7.4,-6.5 4.4,0 7.7,0.7 7.6,6.2 -0.1,4.3 0.1,8.7 -0.1,13 -0.7,17.3 -12.4,28.6 -29.7,28.6 -17.2,0 -29.3,-11.4 -29.7,-28.7 -0.4,-14.9 -0.1,-29.9 -0.1,-44.8 z"
   id="path93" />
		<path
   class="st0"
   d="m 916.6,127.4 c 0,-20.7 0.2,-41.5 -0.1,-62.2 -0.1,-6.5 1.9,-9.2 8.7,-8.8 9.9,0.5 19.8,0.3 29.6,0 5.1,-0.1 7.6,1.5 7.6,6.9 0,5.6 -2.4,7.9 -7.8,7.7 -5.5,-0.2 -11.1,0.1 -16.6,-0.1 -4.5,-0.2 -6.1,1.8 -6,6 0.1,12.3 0.1,24.6 0,36.9 0,4.5 1.8,6.6 6.5,6.5 6,-0.2 12.1,0.1 18.1,-0.1 5.1,-0.1 5.9,3 5.9,7 0,4 -0.6,7.4 -5.6,7.4 -6,0 -12.1,0.2 -18.1,0 -4.5,-0.2 -6.8,1.3 -6.7,6.1 0.1,13 0.1,26 0,39.1 0,4.4 2.1,5.9 6.3,5.7 6,-0.2 12.1,0 18.1,-0.1 5.4,0 6.1,3.5 6.1,7.8 0,4.3 -1.3,6.8 -6.2,6.8 -11.1,-0.2 -22.2,-0.2 -33.3,0 -6.1,0.1 -6.3,-3.7 -6.3,-8.1 -0.2,-21.6 -0.2,-43.1 -0.2,-64.5 z"
   id="path95" />
		<path
   class="st0"
   d="m 855.4,128.2 c 0,-21 0.1,-41.9 -0.1,-62.9 0,-5.6 0.6,-8.9 7.7,-9 7.6,-0.1 7.3,4.1 7.3,9.3 -0.1,36.2 0,72.3 0,108.5 0,11.4 0,11.4 11.7,11.4 3.6,0 7.2,0.2 10.8,0 5.7,-0.3 6.9,3 6.9,7.7 0,4.7 -1.8,7 -6.9,6.9 -10.1,-0.3 -20.3,-0.3 -30.4,0 -5.5,0.2 -7,-2.3 -7,-7.4 0.1,-21.6 0,-43.1 0,-64.5 z"
   id="path97" />
		<path
   class="st0"
   d="m 832.1,128.9 c 0,21 -0.1,42 0.1,63 0.1,5.8 -1.7,8.2 -7.8,8.2 -5.8,-0.1 -7.5,-2.4 -7.5,-7.8 0.1,-42.7 0.1,-85.4 0,-128.1 0,-6.2 2.5,-7.8 8.3,-7.8 6.2,0 7.1,3 7.1,8.1 -0.2,21.4 -0.2,42.9 -0.2,64.4 z"
   id="path99" />
	</g>
</g>
<g
   id="g3295"
   transform="translate(0,10)"><g
     aria-label="Jolis sacs banane, fabriqués sur mesure, à la main"
     transform="translate(16.213216,-19.245604)"
     id="text395"
     style="font-size:40px;line-height:1.25;white-space:pre;shape-inside:url(#rect397);display:inline;fill:#cd0072"><path
       d="m 263.14905,234.70015 v 25.75202 q 0,1.16001 -0.42533,2.16534 -0.42534,1.00533 -1.19867,1.77867 -0.73467,0.73467 -1.77867,1.19867 -1.00533,0.42533 -2.16533,0.42533 h -0.61867 q -1.16,0 -2.16533,-0.42533 -1.00534,-0.464 -1.77867,-1.19867 -0.73467,-0.77334 -1.19867,-1.77867 -0.42533,-1.00533 -0.42533,-2.16534 v -6.10933 h 1.93333 v 6.10933 q 0,0.73467 0.27067,1.43067 0.30933,0.65734 0.77333,1.16 0.50267,0.464 1.16,0.77334 0.696,0.27066 1.43067,0.27066 h 0.61867 q 0.77333,0 1.43067,-0.27066 0.65733,-0.30934 1.12133,-0.77334 0.50267,-0.50266 0.77333,-1.16 0.30934,-0.696 0.30934,-1.43067 v -25.75202 z"
       style="font-size:38.6667px;font-family:Politica;-inkscape-font-specification:'Politica, Normal'"
       id="path3297" /><path
       d="m 278.34506,260.87751 q 0,1.044 -0.42533,2.01067 -0.38667,0.928 -1.08267,1.624 -0.696,0.696 -1.624,1.12133 -0.928,0.38667 -2.01067,0.38667 h -0.85067 q -1.08266,0 -2.01066,-0.38667 -0.928,-0.42533 -1.62401,-1.12133 -0.696,-0.696 -1.12133,-1.624 -0.38667,-0.96667 -0.38667,-2.01067 v -12.14134 q 0,-1.08267 0.38667,-2.01067 0.42533,-0.928 1.12133,-1.624 0.69601,-0.69601 1.62401,-1.08267 0.928,-0.42534 2.01066,-0.42534 h 0.85067 q 1.08267,0 2.01067,0.42534 0.928,0.38666 1.624,1.08267 0.696,0.696 1.08267,1.624 0.42533,0.928 0.42533,2.01067 z m -1.93333,-12.14134 q 0,-1.35334 -0.928,-2.28134 -0.928,-0.928 -2.28134,-0.928 h -0.85067 q -1.35333,0 -2.28133,0.928 -0.928,0.928 -0.928,2.28134 v 12.14134 q 0,1.35333 0.928,2.28133 0.928,0.928 2.28133,0.928 h 0.85067 q 1.35334,0 2.28134,-0.928 0.928,-0.928 0.928,-2.28133 z"
       style="font-size:38.6667px;font-family:Politica;-inkscape-font-specification:'Politica, Normal'"
       id="path3299" /><path
       d="m 282.79175,236.09215 h 1.93334 v 26.21603 q 0,0.27066 0.232,0.61866 0.27066,0.30934 0.61866,0.58 0.38667,0.232 0.85067,0.42534 0.464,0.15466 0.85067,0.15466 v 1.93334 q -0.77334,0 -1.58534,-0.30933 -0.77333,-0.27067 -1.43066,-0.77334 -0.65734,-0.50267 -1.08267,-1.16 -0.38667,-0.696 -0.38667,-1.46933 z"
       style="font-size:38.6667px;font-family:Politica;-inkscape-font-specification:'Politica, Normal'"
       id="path3301" /><path
       d="m 292.30373,240.15216 h -1.93334 v -4.09867 h 1.93334 z m -1.93334,3.828 h 1.93334 v 18.32802 q 0,0.27066 0.232,0.61866 0.27066,0.30934 0.61866,0.58 0.38667,0.232 0.85067,0.42534 0.464,0.15466 0.85067,0.15466 v 1.93334 q -0.77334,0 -1.58534,-0.30933 -0.77333,-0.27067 -1.43066,-0.77334 -0.65734,-0.50267 -1.08267,-1.16 -0.38667,-0.696 -0.38667,-1.46933 z"
       style="font-size:38.6667px;font-family:Politica;-inkscape-font-specification:'Politica, Normal'"
       id="path3303" /><path
       d="m 298.9157,249.5095 q 0,0.65733 0.696,1.43067 0.696,0.73466 1.54667,1.392 1.00533,0.73467 2.204,1.508 1.35333,0.77333 2.39733,1.70133 0.88934,0.77334 1.62401,1.81734 0.73466,1.044 0.73466,2.204 v 1.31467 q 0,1.044 -0.42533,2.01067 -0.38667,0.928 -1.08267,1.624 -0.696,0.696 -1.624,1.12133 -0.928,0.38667 -2.01067,0.38667 h -0.85067 q -1.08266,0 -2.01066,-0.38667 -0.928,-0.42533 -1.62401,-1.12133 -0.696,-0.696 -1.12133,-1.624 -0.38667,-0.96667 -0.38667,-2.01067 v -3.44134 h 1.93334 v 3.44134 q 0,1.35333 0.928,2.28133 0.928,0.928 2.28133,0.928 h 0.85067 q 1.35334,0 2.28134,-0.928 0.928,-0.928 0.928,-2.28133 v -1.31467 q 0,-0.65733 -0.696,-1.43067 -0.696,-0.812 -1.58534,-1.46933 -1.00533,-0.77334 -2.28133,-1.58534 -1.31467,-0.73466 -2.32,-1.624 -0.88934,-0.77333 -1.62401,-1.77867 -0.696,-1.00533 -0.696,-2.16533 v -0.77333 q 0,-1.08267 0.38667,-2.01067 0.42533,-0.928 1.12133,-1.624 0.69601,-0.69601 1.62401,-1.08267 0.928,-0.42534 2.01066,-0.42534 h 0.85067 q 1.08267,0 2.01067,0.42534 0.928,0.38666 1.624,1.08267 0.696,0.696 1.08267,1.624 0.42533,0.928 0.42533,2.01067 v 0.77333 h -1.93333 v -0.77333 q 0,-1.35334 -0.928,-2.28134 -0.928,-0.928 -2.28134,-0.928 h -0.85067 q -1.35333,0 -2.28133,0.928 -0.928,0.928 -0.928,2.28134 z"
       style="font-size:38.6667px;font-family:Politica;-inkscape-font-specification:'Politica, Normal'"
       id="path3305" /><path
       d="m 319.33171,249.5095 q 0,0.65733 0.696,1.43067 0.696,0.73466 1.54667,1.392 1.00533,0.73467 2.204,1.508 1.35334,0.77333 2.39734,1.70133 0.88933,0.77334 1.624,1.81734 0.73466,1.044 0.73466,2.204 v 1.31467 q 0,1.044 -0.42533,2.01067 -0.38667,0.928 -1.08267,1.624 -0.696,0.696 -1.624,1.12133 -0.928,0.38667 -2.01067,0.38667 h -0.85066 q -1.08267,0 -2.01067,-0.38667 -0.928,-0.42533 -1.624,-1.12133 -0.696,-0.696 -1.12134,-1.624 -0.38666,-0.96667 -0.38666,-2.01067 v -3.44134 h 1.93333 v 3.44134 q 0,1.35333 0.928,2.28133 0.928,0.928 2.28134,0.928 h 0.85066 q 1.35334,0 2.28134,-0.928 0.928,-0.928 0.928,-2.28133 v -1.31467 q 0,-0.65733 -0.696,-1.43067 -0.696,-0.812 -1.58534,-1.46933 -1.00533,-0.77334 -2.28133,-1.58534 -1.31467,-0.73466 -2.32,-1.624 -0.88934,-0.77333 -1.624,-1.77867 -0.696,-1.00533 -0.696,-2.16533 v -0.77333 q 0,-1.08267 0.38666,-2.01067 0.42534,-0.928 1.12134,-1.624 0.696,-0.69601 1.624,-1.08267 0.928,-0.42534 2.01067,-0.42534 h 0.85066 q 1.08267,0 2.01067,0.42534 0.928,0.38666 1.624,1.08267 0.696,0.696 1.08267,1.624 0.42533,0.928 0.42533,2.01067 v 0.77333 h -1.93333 v -0.77333 q 0,-1.35334 -0.928,-2.28134 -0.928,-0.928 -2.28134,-0.928 h -0.85066 q -1.35334,0 -2.28134,0.928 -0.928,0.928 -0.928,2.28134 z"
       style="font-size:38.6667px;font-family:Politica;-inkscape-font-specification:'Politica, Normal'"
       id="path3307" /><path
       d="m 340.44373,248.73617 q 0,-1.50801 -0.85067,-2.35867 -0.85066,-0.85067 -2.35867,-0.85067 -1.508,0 -2.35866,0.928 -0.85067,0.928 -0.85067,2.28134 v 0.77333 h -1.93334 v -0.77333 q 0,-1.16001 0.38667,-2.08801 0.42533,-0.96666 1.12133,-1.624 0.696,-0.696 1.62401,-1.044 0.928,-0.38667 2.01066,-0.38667 1.08267,0 2.01067,0.38667 0.928,0.348 1.624,1.044 0.696,0.65734 1.08267,1.624 0.42533,0.928 0.42533,2.08801 v 16.89734 h -1.93333 v -2.39733 q -0.96667,0.77333 -1.972,1.392 -0.85067,0.54133 -1.81734,0.96667 -0.928,0.42533 -1.70133,0.42533 -1.54667,0 -2.62934,-1.08267 -1.08266,-1.08267 -1.08266,-2.62933 v -2.66801 q 0,-2.04933 1.08266,-3.48 1.08267,-1.46933 2.74534,-2.12667 l 5.37467,-1.70133 z m -7.26934,13.57201 q 0,0.65733 0.54133,1.23733 0.58,0.54133 1.23734,0.54133 0.77333,0 1.70133,-0.50266 0.96667,-0.50267 1.81734,-1.12134 1.00533,-0.696 1.972,-1.58533 v -6.53467 l -4.56267,1.43066 q -1.35333,0.54134 -2.04934,1.58534 -0.65733,1.00533 -0.65733,2.28133 z"
       style="font-size:38.6667px;font-family:Politica;-inkscape-font-specification:'Politica, Normal'"
       id="path3309" /><path
       d="m 355.63971,258.09351 h 1.93333 v 2.784 q 0,1.044 -0.42533,2.01067 -0.38667,0.928 -1.08267,1.624 -0.696,0.696 -1.624,1.12133 -0.928,0.38667 -2.01067,0.38667 h -0.85066 q -1.08267,0 -2.01067,-0.38667 -0.928,-0.42533 -1.624,-1.12133 -0.696,-0.696 -1.12134,-1.624 -0.38666,-0.96667 -0.38666,-2.01067 v -12.14134 q 0,-1.08267 0.38666,-2.01067 0.42534,-0.928 1.12134,-1.624 0.696,-0.69601 1.624,-1.08267 0.928,-0.42534 2.01067,-0.42534 h 0.85066 q 1.08267,0 2.01067,0.42534 0.928,0.38666 1.624,1.08267 0.696,0.696 1.08267,1.624 0.42533,0.928 0.42533,2.01067 v 2.9 h -1.93333 v -2.9 q 0,-1.35334 -0.928,-2.28134 -0.928,-0.928 -2.28134,-0.928 h -0.85066 q -1.35334,0 -2.28134,0.928 -0.928,0.928 -0.928,2.28134 v 12.14134 q 0,1.35333 0.928,2.28133 0.928,0.928 2.28134,0.928 h 0.85066 q 1.35334,0 2.28134,-0.928 0.928,-0.928 0.928,-2.28133 z"
       style="font-size:38.6667px;font-family:Politica;-inkscape-font-specification:'Politica, Normal'"
       id="path3311" /><path
       d="m 362.01975,249.5095 q 0,0.65733 0.696,1.43067 0.696,0.73466 1.54667,1.392 1.00533,0.73467 2.204,1.508 1.35334,0.77333 2.39734,1.70133 0.88933,0.77334 1.624,1.81734 0.73467,1.044 0.73467,2.204 v 1.31467 q 0,1.044 -0.42534,2.01067 -0.38666,0.928 -1.08267,1.624 -0.696,0.696 -1.624,1.12133 -0.928,0.38667 -2.01066,0.38667 h -0.85067 q -1.08267,0 -2.01067,-0.38667 -0.928,-0.42533 -1.624,-1.12133 -0.696,-0.696 -1.12134,-1.624 -0.38666,-0.96667 -0.38666,-2.01067 v -3.44134 h 1.93333 v 3.44134 q 0,1.35333 0.928,2.28133 0.928,0.928 2.28134,0.928 h 0.85067 q 1.35333,0 2.28133,-0.928 0.928,-0.928 0.928,-2.28133 v -1.31467 q 0,-0.65733 -0.696,-1.43067 -0.696,-0.812 -1.58533,-1.46933 -1.00534,-0.77334 -2.28134,-1.58534 -1.31467,-0.73466 -2.32,-1.624 -0.88934,-0.77333 -1.624,-1.77867 -0.696,-1.00533 -0.696,-2.16533 v -0.77333 q 0,-1.08267 0.38666,-2.01067 0.42534,-0.928 1.12134,-1.624 0.696,-0.69601 1.624,-1.08267 0.928,-0.42534 2.01067,-0.42534 h 0.85067 q 1.08266,0 2.01066,0.42534 0.928,0.38666 1.624,1.08267 0.69601,0.696 1.08267,1.624 0.42534,0.928 0.42534,2.01067 v 0.77333 h -1.93334 v -0.77333 q 0,-1.35334 -0.928,-2.28134 -0.928,-0.928 -2.28133,-0.928 h -0.85067 q -1.35334,0 -2.28134,0.928 -0.928,0.928 -0.928,2.28134 z"
       style="font-size:38.6667px;font-family:Politica;-inkscape-font-specification:'Politica, Normal'"
       id="path3313" /><path
       d="m 390.47844,247.3055 q 0,-0.812 -0.58,-1.276 -0.54133,-0.50267 -1.19867,-0.50267 -0.77333,0 -1.74,0.50267 -0.928,0.464 -1.77867,1.08266 -1.00533,0.696 -1.972,1.58534 v 12.18001 q 0,1.35333 0.928,2.28133 0.928,0.928 2.28134,0.928 h 0.85066 q 1.35334,0 2.28134,-0.928 0.928,-0.928 0.928,-2.28133 z m 1.93334,13.57201 q 0,1.044 -0.42534,2.01067 -0.38666,0.928 -1.08267,1.624 -0.696,0.696 -1.624,1.12133 -0.928,0.38667 -2.01067,0.38667 h -0.85066 q -1.08267,0 -2.01067,-0.38667 -0.928,-0.42533 -1.624,-1.12133 -0.696,-0.696 -1.12134,-1.624 -0.38666,-0.96667 -0.38666,-2.01067 v -24.82402 h 1.93333 v 10.32401 q 0.96667,-0.77334 1.972,-1.392 0.85067,-0.54134 1.77867,-0.96667 0.96667,-0.42534 1.74,-0.42534 1.54667,0 2.62934,1.08267 1.08267,1.08267 1.08267,2.62934 z"
       style="font-size:38.6667px;font-family:Politica;-inkscape-font-specification:'Politica, Normal'"
       id="path3315" /><path
       d="m 404.90111,248.73617 q 0,-1.50801 -0.85067,-2.35867 -0.85066,-0.85067 -2.35866,-0.85067 -1.50801,0 -2.35867,0.928 -0.85067,0.928 -0.85067,2.28134 v 0.77333 h -1.93333 v -0.77333 q 0,-1.16001 0.38666,-2.08801 0.42534,-0.96666 1.12134,-1.624 0.696,-0.696 1.624,-1.044 0.928,-0.38667 2.01067,-0.38667 1.08266,0 2.01066,0.38667 0.92801,0.348 1.62401,1.044 0.696,0.65734 1.08266,1.624 0.42534,0.928 0.42534,2.08801 v 16.89734 h -1.93334 v -2.39733 q -0.96667,0.77333 -1.972,1.392 -0.85067,0.54133 -1.81733,0.96667 -0.92801,0.42533 -1.70134,0.42533 -1.54667,0 -2.62933,-1.08267 -1.08267,-1.08267 -1.08267,-2.62933 v -2.66801 q 0,-2.04933 1.08267,-3.48 1.08266,-1.46933 2.74533,-2.12667 l 5.37467,-1.70133 z m -7.26934,13.57201 q 0,0.65733 0.54134,1.23733 0.58,0.54133 1.23733,0.54133 0.77333,0 1.70134,-0.50266 0.96666,-0.50267 1.81733,-1.12134 1.00533,-0.696 1.972,-1.58533 v -6.53467 l -4.56267,1.43066 q -1.35333,0.54134 -2.04933,1.58534 -0.65734,1.00533 -0.65734,2.28133 z"
       style="font-size:38.6667px;font-family:Politica;-inkscape-font-specification:'Politica, Normal'"
       id="path3317" /><path
       d="m 411.28109,265.63351 v -21.65335 h 1.93334 v 2.39734 q 0.96666,-0.77334 1.972,-1.392 0.85067,-0.54134 1.77867,-0.96667 0.96666,-0.42534 1.74,-0.42534 1.54667,0 2.62933,1.08267 1.08267,1.08267 1.08267,2.62934 v 18.32801 h -1.93333 V 247.3055 q 0,-0.812 -0.58,-1.276 -0.54134,-0.50267 -1.19867,-0.50267 -0.77334,0 -1.74,0.50267 -0.928,0.464 -1.77867,1.08266 -1.00534,0.696 -1.972,1.58534 v 16.93601 z"
       style="font-size:38.6667px;font-family:Politica;-inkscape-font-specification:'Politica, Normal'"
       id="path3319" /><path
       d="m 434.90644,248.73617 q 0,-1.50801 -0.85067,-2.35867 -0.85067,-0.85067 -2.35867,-0.85067 -1.508,0 -2.35867,0.928 -0.85066,0.928 -0.85066,2.28134 v 0.77333 h -1.93334 v -0.77333 q 0,-1.16001 0.38667,-2.08801 0.42533,-0.96666 1.12133,-1.624 0.696,-0.696 1.624,-1.044 0.928,-0.38667 2.01067,-0.38667 1.08267,0 2.01067,0.38667 0.928,0.348 1.624,1.044 0.696,0.65734 1.08267,1.624 0.42533,0.928 0.42533,2.08801 v 16.89734 h -1.93333 v -2.39733 q -0.96667,0.77333 -1.972,1.392 -0.85067,0.54133 -1.81734,0.96667 -0.928,0.42533 -1.70133,0.42533 -1.54667,0 -2.62934,-1.08267 -1.08267,-1.08267 -1.08267,-2.62933 v -2.66801 q 0,-2.04933 1.08267,-3.48 1.08267,-1.46933 2.74534,-2.12667 l 5.37467,-1.70133 z m -7.26934,13.57201 q 0,0.65733 0.54133,1.23733 0.58,0.54133 1.23734,0.54133 0.77333,0 1.70133,-0.50266 0.96667,-0.50267 1.81734,-1.12134 1.00533,-0.696 1.972,-1.58533 v -6.53467 l -4.56267,1.43066 q -1.35334,0.54134 -2.04934,1.58534 -0.65733,1.00533 -0.65733,2.28133 z"
       style="font-size:38.6667px;font-family:Politica;-inkscape-font-specification:'Politica, Normal'"
       id="path3321" /><path
       d="m 441.2864,265.63351 v -21.65335 h 1.93334 v 2.39734 q 0.96666,-0.77334 1.972,-1.392 0.85067,-0.54134 1.77867,-0.96667 0.96666,-0.42534 1.74,-0.42534 1.54667,0 2.62933,1.08267 1.08267,1.08267 1.08267,2.62934 v 18.32801 h -1.93333 V 247.3055 q 0,-0.812 -0.58,-1.276 -0.54134,-0.50267 -1.19867,-0.50267 -0.77334,0 -1.74,0.50267 -0.928,0.464 -1.77867,1.08266 -1.00534,0.696 -1.972,1.58534 v 16.93601 z"
       style="font-size:38.6667px;font-family:Politica;-inkscape-font-specification:'Politica, Normal'"
       id="path3323" /><path
       d="m 462.47575,264.08684 q 1.35333,0 2.28133,-0.928 0.928,-0.928 0.928,-2.28133 v -2.784 h 1.93334 v 2.784 q 0,1.08267 -0.42534,2.01067 -0.38666,0.928 -1.08266,1.624 -0.69601,0.696 -1.62401,1.12133 -0.928,0.38667 -2.01066,0.38667 h -0.85067 q -1.08267,0 -2.01067,-0.38667 -0.928,-0.42533 -1.624,-1.12133 -0.696,-0.696 -1.12134,-1.624 -0.38666,-0.928 -0.38666,-2.01067 v -12.14134 q 0,-1.08267 0.38666,-2.01067 0.42534,-0.928 1.12134,-1.624 0.696,-0.69601 1.624,-1.08267 0.928,-0.42534 2.01067,-0.42534 h 0.85067 q 1.08266,0 2.01066,0.42534 0.928,0.38666 1.62401,1.08267 0.696,0.696 1.08266,1.624 0.42534,0.928 0.42534,2.01067 v 4.988 h -9.20268 v 7.15334 q 0,1.35333 0.928,2.28133 0.928,0.928 2.28134,0.928 z m 3.20933,-12.25734 v -3.09333 q 0,-1.35334 -0.928,-2.28134 -0.928,-0.928 -2.28133,-0.928 h -0.85067 q -1.35334,0 -2.28134,0.928 -0.928,0.928 -0.928,2.28134 v 3.09333 z"
       style="font-size:38.6667px;font-family:Politica;-inkscape-font-specification:'Politica, Normal'"
       id="path3325" /><path
       d="m 474.2304,271.66552 h -1.93334 v -12.02535 h 1.93334 z"
       style="font-size:38.6667px;font-family:Politica;-inkscape-font-specification:'Politica, Normal'"
       id="path3327" /><path
       d="m 492.48104,245.72016 h -4.13733 v 22.19469 q 0,0.77333 -0.42534,1.43067 -0.38666,0.696 -1.044,1.19866 -0.65733,0.50267 -1.46933,0.77334 -0.77334,0.30933 -1.54667,0.30933 v -1.93333 q 0.348,0 0.77333,-0.15467 0.42534,-0.15467 0.812,-0.42533 0.42534,-0.23201 0.69601,-0.54134 0.27066,-0.30933 0.27066,-0.65733 v -22.19469 h -3.09333 v -1.89467 h 3.09333 v -4.06 q 0,-0.77333 0.38667,-1.43067 0.42533,-0.696 1.08267,-1.19866 0.65733,-0.50267 1.43066,-0.77334 0.81201,-0.30933 1.58534,-0.30933 v 1.93333 q -0.348,0 -0.77333,0.15467 -0.42534,0.15467 -0.85067,0.42533 -0.38667,0.232 -0.65734,0.54134 -0.27066,0.30933 -0.27066,0.65733 v 4.06 h 4.13733 z"
       style="font-size:38.6667px;font-family:Politica;-inkscape-font-specification:'Politica, Normal'"
       id="path3329" /><path
       d="m 502.84375,248.73617 q 0,-1.50801 -0.85066,-2.35867 -0.85067,-0.85067 -2.35867,-0.85067 -1.508,0 -2.35867,0.928 -0.85067,0.928 -0.85067,2.28134 v 0.77333 h -1.93333 v -0.77333 q 0,-1.16001 0.38666,-2.08801 0.42534,-0.96666 1.12134,-1.624 0.696,-0.696 1.624,-1.044 0.928,-0.38667 2.01067,-0.38667 1.08267,0 2.01067,0.38667 0.928,0.348 1.624,1.044 0.696,0.65734 1.08267,1.624 0.42533,0.928 0.42533,2.08801 v 16.89734 h -1.93334 v -2.39733 q -0.96666,0.77333 -1.972,1.392 -0.85066,0.54133 -1.81733,0.96667 -0.928,0.42533 -1.70134,0.42533 -1.54666,0 -2.62933,-1.08267 -1.08267,-1.08267 -1.08267,-2.62933 v -2.66801 q 0,-2.04933 1.08267,-3.48 1.08267,-1.46933 2.74533,-2.12667 l 5.37467,-1.70133 z m -7.26934,13.57201 q 0,0.65733 0.54134,1.23733 0.58,0.54133 1.23733,0.54133 0.77334,0 1.70134,-0.50266 0.96667,-0.50267 1.81733,-1.12134 1.00534,-0.696 1.972,-1.58533 v -6.53467 l -4.56267,1.43066 q -1.35333,0.54134 -2.04933,1.58534 -0.65734,1.00533 -0.65734,2.28133 z"
       style="font-size:38.6667px;font-family:Politica;-inkscape-font-specification:'Politica, Normal'"
       id="path3331" /><path
       d="m 518.42639,247.3055 q 0,-0.812 -0.58,-1.276 -0.54133,-0.50267 -1.19866,-0.50267 -0.77334,0 -1.74001,0.50267 -0.928,0.464 -1.77866,1.08266 -1.00534,0.696 -1.97201,1.58534 v 12.18001 q 0,1.35333 0.928,2.28133 0.92801,0.928 2.28134,0.928 h 0.85067 q 1.35333,0 2.28133,-0.928 0.928,-0.928 0.928,-2.28133 z m 1.93334,13.57201 q 0,1.044 -0.42534,2.01067 -0.38666,0.928 -1.08266,1.624 -0.696,0.696 -1.624,1.12133 -0.92801,0.38667 -2.01067,0.38667 h -0.85067 q -1.08267,0 -2.01067,-0.38667 -0.928,-0.42533 -1.624,-1.12133 -0.696,-0.696 -1.12133,-1.624 -0.38667,-0.96667 -0.38667,-2.01067 v -24.82402 h 1.93333 v 10.32401 q 0.96667,-0.77334 1.97201,-1.392 0.85066,-0.54134 1.77866,-0.96667 0.96667,-0.42534 1.74001,-0.42534 1.54666,0 2.62933,1.08267 1.08267,1.08267 1.08267,2.62934 z"
       style="font-size:38.6667px;font-family:Politica;-inkscape-font-specification:'Politica, Normal'"
       id="path3333" /><path
       d="m 524.80639,265.63351 v -21.65335 h 1.93334 v 2.39734 q 0.96666,-0.77334 1.972,-1.392 0.85066,-0.54134 1.77867,-0.96667 0.96666,-0.42534 1.74,-0.42534 1.54667,0 2.62933,1.08267 1.08267,1.08267 1.08267,2.62934 v 3.90533 h -1.93333 v -3.90533 q 0,-0.812 -0.58001,-1.276 -0.54133,-0.50267 -1.19866,-0.50267 -0.77334,0 -1.74,0.50267 -0.92801,0.464 -1.77867,1.08266 -1.00534,0.696 -1.972,1.58534 v 16.93601 z"
       style="font-size:38.6667px;font-family:Politica;-inkscape-font-specification:'Politica, Normal'"
       id="path3335" /><path
       d="m 540.9691,240.15216 h -1.93333 v -4.09867 h 1.93333 z m -1.93333,3.828 h 1.93333 v 18.32802 q 0,0.27066 0.232,0.61866 0.27067,0.30934 0.61867,0.58 0.38667,0.232 0.85067,0.42534 0.464,0.15466 0.85066,0.15466 v 1.93334 q -0.77333,0 -1.58533,-0.30933 -0.77334,-0.27067 -1.43067,-0.77334 -0.65733,-0.50267 -1.08267,-1.16 -0.38666,-0.696 -0.38666,-1.46933 z"
       style="font-size:38.6667px;font-family:Politica;-inkscape-font-specification:'Politica, Normal'"
       id="path3337" /><path
       d="m 557.17042,271.66552 h -1.93334 v -8.46801 q -0.96666,0.77333 -1.972,1.392 -0.85067,0.54134 -1.81733,0.96667 -0.928,0.42533 -1.70134,0.42533 -1.54667,0 -2.62933,-1.08266 -1.08267,-1.08267 -1.08267,-2.62934 V 248.6975 q 0,-1.044 0.38667,-1.972 0.42533,-0.96667 1.12133,-1.66267 0.696,-0.696 1.624,-1.08267 0.928,-0.42533 2.01067,-0.42533 h 0.85067 q 1.08266,0 2.01067,0.42533 0.928,0.38667 1.624,1.08267 0.696,0.696 1.08266,1.66267 0.42534,0.928 0.42534,1.972 z m -9.20268,-9.39601 q 0,0.812 0.54134,1.31467 0.58,0.464 1.23733,0.464 0.77334,0 1.70134,-0.50267 0.96666,-0.50267 1.81733,-1.12133 1.00534,-0.696 1.972,-1.58534 V 248.6975 q 0,-1.35334 -0.928,-2.28134 -0.928,-0.928 -2.28133,-0.928 h -0.85067 q -1.35333,0 -2.28134,0.928 -0.928,0.928 -0.928,2.28134 z"
       style="font-size:38.6667px;font-family:Politica;-inkscape-font-specification:'Politica, Normal'"
       id="path3339" /><path
       d="m 572.55977,243.98016 v 21.65335 h -1.93334 v -2.39733 q -0.96667,0.77333 -1.972,1.392 -0.85067,0.54133 -1.81734,0.96667 -0.928,0.42533 -1.70133,0.42533 -1.54667,0 -2.62934,-1.08267 -1.08266,-1.08267 -1.08266,-2.62933 v -18.32802 h 1.93333 v 18.32802 q 0,0.812 0.54134,1.31466 0.58,0.464 1.23733,0.464 0.77333,0 1.70133,-0.464 0.96667,-0.50266 1.81734,-1.12133 1.00533,-0.696 1.972,-1.58533 v -16.93602 z"
       style="font-size:38.6667px;font-family:Politica;-inkscape-font-specification:'Politica, Normal'"
       id="path3341" /><path
       d="m 582.4971,241.11883 h -2.24267 l 3.90534,-5.06534 h 2.204 z m 0.30933,22.96801 q 1.35334,0 2.28134,-0.928 0.928,-0.928 0.928,-2.28133 v -2.784 h 1.93333 v 2.784 q 0,1.08267 -0.42533,2.01067 -0.38667,0.928 -1.08267,1.624 -0.696,0.696 -1.624,1.12133 -0.928,0.38667 -2.01067,0.38667 h -0.85066 q -1.08267,0 -2.01067,-0.38667 -0.928,-0.42533 -1.624,-1.12133 -0.696,-0.696 -1.12134,-1.624 -0.38666,-0.928 -0.38666,-2.01067 v -12.14134 q 0,-1.08267 0.38666,-2.01067 0.42534,-0.928 1.12134,-1.624 0.696,-0.69601 1.624,-1.08267 0.928,-0.42534 2.01067,-0.42534 h 0.85066 q 1.08267,0 2.01067,0.42534 0.928,0.38666 1.624,1.08267 0.696,0.696 1.08267,1.624 0.42533,0.928 0.42533,2.01067 v 4.988 h -9.20267 v 7.15334 q 0,1.35333 0.928,2.28133 0.928,0.928 2.28134,0.928 z m 3.20934,-12.25734 v -3.09333 q 0,-1.35334 -0.928,-2.28134 -0.928,-0.928 -2.28134,-0.928 h -0.85066 q -1.35334,0 -2.28134,0.928 -0.928,0.928 -0.928,2.28134 v 3.09333 z"
       style="font-size:38.6667px;font-family:Politica;-inkscape-font-specification:'Politica, Normal'"
       id="path3343" /><path
       d="m 592.7824,249.5095 q 0,0.65733 0.696,1.43067 0.696,0.73466 1.54667,1.392 1.00533,0.73467 2.204,1.508 1.35334,0.77333 2.39734,1.70133 0.88933,0.77334 1.624,1.81734 0.73467,1.044 0.73467,2.204 v 1.31467 q 0,1.044 -0.42534,2.01067 -0.38666,0.928 -1.08267,1.624 -0.696,0.696 -1.624,1.12133 -0.928,0.38667 -2.01067,0.38667 h -0.85066 q -1.08267,0 -2.01067,-0.38667 -0.928,-0.42533 -1.624,-1.12133 -0.696,-0.696 -1.12134,-1.624 -0.38666,-0.96667 -0.38666,-2.01067 v -3.44134 h 1.93333 v 3.44134 q 0,1.35333 0.928,2.28133 0.928,0.928 2.28134,0.928 h 0.85066 q 1.35334,0 2.28134,-0.928 0.928,-0.928 0.928,-2.28133 v -1.31467 q 0,-0.65733 -0.696,-1.43067 -0.696,-0.812 -1.58533,-1.46933 -1.00534,-0.77334 -2.28134,-1.58534 -1.31467,-0.73466 -2.32,-1.624 -0.88934,-0.77333 -1.624,-1.77867 -0.696,-1.00533 -0.696,-2.16533 v -0.77333 q 0,-1.08267 0.38666,-2.01067 0.42534,-0.928 1.12134,-1.624 0.696,-0.69601 1.624,-1.08267 0.928,-0.42534 2.01067,-0.42534 h 0.85066 q 1.08267,0 2.01067,0.42534 0.928,0.38666 1.624,1.08267 0.69601,0.696 1.08267,1.624 0.42534,0.928 0.42534,2.01067 v 0.77333 h -1.93334 v -0.77333 q 0,-1.35334 -0.928,-2.28134 -0.928,-0.928 -2.28134,-0.928 h -0.85066 q -1.35334,0 -2.28134,0.928 -0.928,0.928 -0.928,2.28134 z"
       style="font-size:38.6667px;font-family:Politica;-inkscape-font-specification:'Politica, Normal'"
       id="path3345" /><path
       d="m 613.19842,249.5095 q 0,0.65733 0.696,1.43067 0.696,0.73466 1.54667,1.392 1.00533,0.73467 2.204,1.508 1.35333,0.77333 2.39733,1.70133 0.88934,0.77334 1.624,1.81734 0.73467,1.044 0.73467,2.204 v 1.31467 q 0,1.044 -0.42533,2.01067 -0.38667,0.928 -1.08267,1.624 -0.696,0.696 -1.624,1.12133 -0.928,0.38667 -2.01067,0.38667 h -0.85067 q -1.08266,0 -2.01067,-0.38667 -0.928,-0.42533 -1.624,-1.12133 -0.696,-0.696 -1.12133,-1.624 -0.38667,-0.96667 -0.38667,-2.01067 v -3.44134 h 1.93334 v 3.44134 q 0,1.35333 0.928,2.28133 0.928,0.928 2.28133,0.928 h 0.85067 q 1.35333,0 2.28134,-0.928 0.928,-0.928 0.928,-2.28133 v -1.31467 q 0,-0.65733 -0.696,-1.43067 -0.696,-0.812 -1.58534,-1.46933 -1.00533,-0.77334 -2.28133,-1.58534 -1.31467,-0.73466 -2.32001,-1.624 -0.88933,-0.77333 -1.624,-1.77867 -0.696,-1.00533 -0.696,-2.16533 v -0.77333 q 0,-1.08267 0.38667,-2.01067 0.42533,-0.928 1.12133,-1.624 0.696,-0.69601 1.624,-1.08267 0.92801,-0.42534 2.01067,-0.42534 h 0.85067 q 1.08267,0 2.01067,0.42534 0.928,0.38666 1.624,1.08267 0.696,0.696 1.08267,1.624 0.42533,0.928 0.42533,2.01067 v 0.77333 h -1.93333 v -0.77333 q 0,-1.35334 -0.928,-2.28134 -0.92801,-0.928 -2.28134,-0.928 h -0.85067 q -1.35333,0 -2.28133,0.928 -0.928,0.928 -0.928,2.28134 z"
       style="font-size:38.6667px;font-family:Politica;-inkscape-font-specification:'Politica, Normal'"
       id="path3347" /><path
       d="m 637.21043,243.98016 v 21.65335 h -1.93333 v -2.39733 q -0.96667,0.77333 -1.97201,1.392 -0.85066,0.54133 -1.81733,0.96667 -0.928,0.42533 -1.70133,0.42533 -1.54667,0 -2.62934,-1.08267 -1.08267,-1.08267 -1.08267,-2.62933 v -18.32802 h 1.93334 v 18.32802 q 0,0.812 0.54133,1.31466 0.58,0.464 1.23734,0.464 0.77333,0 1.70133,-0.464 0.96667,-0.50266 1.81733,-1.12133 1.00534,-0.696 1.97201,-1.58533 v -16.93602 z"
       style="font-size:38.6667px;font-family:Politica;-inkscape-font-specification:'Politica, Normal'"
       id="path3349" /><path
       d="m 641.85043,265.63351 v -21.65335 h 1.93333 v 2.39734 q 0.96667,-0.77334 1.972,-1.392 0.85067,-0.54134 1.77867,-0.96667 0.96667,-0.42534 1.74,-0.42534 1.54667,0 2.62934,1.08267 1.08267,1.08267 1.08267,2.62934 v 3.90533 h -1.93334 v -3.90533 q 0,-0.812 -0.58,-1.276 -0.54133,-0.50267 -1.19867,-0.50267 -0.77333,0 -1.74,0.50267 -0.928,0.464 -1.77867,1.08266 -1.00533,0.696 -1.972,1.58534 v 16.93601 z"
       style="font-size:38.6667px;font-family:Politica;-inkscape-font-specification:'Politica, Normal'"
       id="path3351" /><path
       d="M 672.04915,265.63351 V 247.3055 q 0,-0.812 -0.58,-1.276 -0.54133,-0.50267 -1.19866,-0.50267 -0.77334,0 -1.85601,0.50267 -1.044,0.464 -2.04933,1.08266 -1.16,0.696 -2.35867,1.58534 v 16.93601 h -1.93333 v -21.65335 h 1.93333 v 2.39734 q 1.19867,-0.77334 2.35867,-1.392 1.00533,-0.54134 2.04933,-0.96667 1.08267,-0.42534 1.85601,-0.42534 1.31466,0 2.28133,0.812 1.00533,0.77334 1.31467,1.97201 h 0.116 q 1.19867,-0.77334 2.35867,-1.392 1.00533,-0.54134 2.04933,-0.96667 1.08267,-0.42534 1.856,-0.42534 1.54667,0 2.62934,1.08267 1.08267,1.08267 1.08267,2.62934 v 18.32801 h -1.93334 V 247.3055 q 0,-0.812 -0.58,-1.276 -0.54133,-0.50267 -1.19867,-0.50267 -0.77333,0 -1.856,0.50267 -1.044,0.464 -2.04933,1.08266 -1.16,0.696 -2.35867,1.58534 v 16.93601 z"
       style="font-size:38.6667px;font-family:Politica;-inkscape-font-specification:'Politica, Normal'"
       id="path3353" /><path
       d="m 694.01182,264.08684 q 1.35333,0 2.28133,-0.928 0.928,-0.928 0.928,-2.28133 v -2.784 h 1.93334 v 2.784 q 0,1.08267 -0.42534,2.01067 -0.38666,0.928 -1.08266,1.624 -0.696,0.696 -1.624,1.12133 -0.92801,0.38667 -2.01067,0.38667 h -0.85067 q -1.08267,0 -2.01067,-0.38667 -0.928,-0.42533 -1.624,-1.12133 -0.696,-0.696 -1.12133,-1.624 -0.38667,-0.928 -0.38667,-2.01067 v -12.14134 q 0,-1.08267 0.38667,-2.01067 0.42533,-0.928 1.12133,-1.624 0.696,-0.69601 1.624,-1.08267 0.928,-0.42534 2.01067,-0.42534 h 0.85067 q 1.08266,0 2.01067,0.42534 0.928,0.38666 1.624,1.08267 0.696,0.696 1.08266,1.624 0.42534,0.928 0.42534,2.01067 v 4.988 h -9.20268 v 7.15334 q 0,1.35333 0.928,2.28133 0.92801,0.928 2.28134,0.928 z m 3.20933,-12.25734 v -3.09333 q 0,-1.35334 -0.928,-2.28134 -0.928,-0.928 -2.28133,-0.928 h -0.85067 q -1.35333,0 -2.28134,0.928 -0.928,0.928 -0.928,2.28134 v 3.09333 z"
       style="font-size:38.6667px;font-family:Politica;-inkscape-font-specification:'Politica, Normal'"
       id="path3355" /><path
       d="m 703.98782,249.5095 q 0,0.65733 0.696,1.43067 0.696,0.73466 1.54666,1.392 1.00534,0.73467 2.20401,1.508 1.35333,0.77333 2.39733,1.70133 0.88934,0.77334 1.624,1.81734 0.73467,1.044 0.73467,2.204 v 1.31467 q 0,1.044 -0.42533,2.01067 -0.38667,0.928 -1.08267,1.624 -0.696,0.696 -1.624,1.12133 -0.928,0.38667 -2.01067,0.38667 h -0.85067 q -1.08267,0 -2.01067,-0.38667 -0.928,-0.42533 -1.624,-1.12133 -0.696,-0.696 -1.12133,-1.624 -0.38667,-0.96667 -0.38667,-2.01067 v -3.44134 h 1.93334 v 3.44134 q 0,1.35333 0.928,2.28133 0.928,0.928 2.28133,0.928 h 0.85067 q 1.35333,0 2.28133,-0.928 0.928,-0.928 0.928,-2.28133 v -1.31467 q 0,-0.65733 -0.696,-1.43067 -0.696,-0.812 -1.58533,-1.46933 -1.00533,-0.77334 -2.28134,-1.58534 -1.31466,-0.73466 -2.32,-1.624 -0.88933,-0.77333 -1.624,-1.77867 -0.696,-1.00533 -0.696,-2.16533 v -0.77333 q 0,-1.08267 0.38667,-2.01067 0.42533,-0.928 1.12133,-1.624 0.696,-0.69601 1.624,-1.08267 0.928,-0.42534 2.01067,-0.42534 h 0.85067 q 1.08267,0 2.01067,0.42534 0.928,0.38666 1.624,1.08267 0.696,0.696 1.08267,1.624 0.42533,0.928 0.42533,2.01067 v 0.77333 h -1.93334 v -0.77333 q 0,-1.35334 -0.928,-2.28134 -0.928,-0.928 -2.28133,-0.928 h -0.85067 q -1.35333,0 -2.28133,0.928 -0.928,0.928 -0.928,2.28134 z"
       style="font-size:38.6667px;font-family:Politica;-inkscape-font-specification:'Politica, Normal'"
       id="path3357" /><path
       d="m 727.99983,243.98016 v 21.65335 h -1.93334 v -2.39733 q -0.96666,0.77333 -1.972,1.392 -0.85066,0.54133 -1.81733,0.96667 -0.928,0.42533 -1.70134,0.42533 -1.54666,0 -2.62933,-1.08267 -1.08267,-1.08267 -1.08267,-2.62933 v -18.32802 h 1.93334 v 18.32802 q 0,0.812 0.54133,1.31466 0.58,0.464 1.23733,0.464 0.77334,0 1.70134,-0.464 0.96667,-0.50266 1.81733,-1.12133 1.00534,-0.696 1.972,-1.58533 v -16.93602 z"
       style="font-size:38.6667px;font-family:Politica;-inkscape-font-specification:'Politica, Normal'"
       id="path3359" /><path
       d="m 732.63983,265.63351 v -21.65335 h 1.93333 v 2.39734 q 0.96667,-0.77334 1.972,-1.392 0.85067,-0.54134 1.77867,-0.96667 0.96667,-0.42534 1.74,-0.42534 1.54667,0 2.62934,1.08267 1.08267,1.08267 1.08267,2.62934 v 3.90533 h -1.93334 v -3.90533 q 0,-0.812 -0.58,-1.276 -0.54133,-0.50267 -1.19867,-0.50267 -0.77333,0 -1.74,0.50267 -0.928,0.464 -1.77867,1.08266 -1.00533,0.696 -1.972,1.58534 v 16.93601 z"
       style="font-size:38.6667px;font-family:Politica;-inkscape-font-specification:'Politica, Normal'"
       id="path3361" /><path
       d="m 752.28254,264.08684 q 1.35333,0 2.28133,-0.928 0.928,-0.928 0.928,-2.28133 v -2.784 h 1.93334 v 2.784 q 0,1.08267 -0.42533,2.01067 -0.38667,0.928 -1.08267,1.624 -0.696,0.696 -1.624,1.12133 -0.928,0.38667 -2.01067,0.38667 h -0.85067 q -1.08267,0 -2.01067,-0.38667 -0.928,-0.42533 -1.624,-1.12133 -0.696,-0.696 -1.12133,-1.624 -0.38667,-0.928 -0.38667,-2.01067 v -12.14134 q 0,-1.08267 0.38667,-2.01067 0.42533,-0.928 1.12133,-1.624 0.696,-0.69601 1.624,-1.08267 0.928,-0.42534 2.01067,-0.42534 h 0.85067 q 1.08267,0 2.01067,0.42534 0.928,0.38666 1.624,1.08267 0.696,0.696 1.08267,1.624 0.42533,0.928 0.42533,2.01067 v 4.988 h -9.20267 v 7.15334 q 0,1.35333 0.928,2.28133 0.928,0.928 2.28133,0.928 z m 3.20933,-12.25734 v -3.09333 q 0,-1.35334 -0.928,-2.28134 -0.928,-0.928 -2.28133,-0.928 h -0.85067 q -1.35333,0 -2.28133,0.928 -0.928,0.928 -0.928,2.28134 v 3.09333 z"
       style="font-size:38.6667px;font-family:Politica;-inkscape-font-specification:'Politica, Normal'"
       id="path3363" /><path
       d="m 764.0372,271.66552 h -1.93333 v -12.02535 h 1.93333 z"
       style="font-size:38.6667px;font-family:Politica;-inkscape-font-specification:'Politica, Normal'"
       id="path3365" /><path
       d="m 778.32252,236.05349 h 2.204 l 3.90534,5.06534 h -2.204 z m 6.07067,16.27868 -5.37467,1.70133 q -1.66267,0.65734 -2.74533,2.12667 -1.08267,1.43067 -1.08267,3.48 v 2.66801 q 0,1.54666 1.08267,2.62933 1.08266,1.08267 2.62933,1.08267 0.77334,0 1.70134,-0.42533 0.96666,-0.42534 1.81733,-0.96667 1.00534,-0.61867 1.972,-1.392 v 2.39733 h 1.93334 v -16.89734 q 0,-1.16001 -0.42534,-2.08801 -0.38666,-0.96666 -1.08266,-1.624 -0.696,-0.696 -1.624,-1.044 -0.92801,-0.38667 -2.01067,-0.38667 -1.08267,0 -2.01067,0.38667 -0.928,0.348 -1.624,1.044 -0.696,0.65734 -1.12134,1.624 -0.38666,0.928 -0.38666,2.08801 v 0.77333 h 1.93333 v -0.77333 q 0,-1.35334 0.85067,-2.28134 0.85067,-0.928 2.35867,-0.928 1.508,0 2.35867,0.85067 0.85066,0.85066 0.85066,2.35867 z m -7.26934,7.308 q 0,-1.276 0.65734,-2.28133 0.696,-1.044 2.04933,-1.58534 l 4.56267,-1.43066 v 6.53467 q -0.96666,0.88933 -1.972,1.58533 -0.85067,0.61867 -1.81733,1.12134 -0.928,0.50266 -1.70134,0.50266 -0.65733,0 -1.23733,-0.54133 -0.54134,-0.58 -0.54134,-1.23733 z"
       style="font-size:38.6667px;font-family:Politica;-inkscape-font-specification:'Politica, Normal'"
       id="path3375" /><path
       d="m 797.15317,236.09215 h 1.93333 v 26.21603 q 0,0.27066 0.232,0.61866 0.27067,0.30934 0.61867,0.58 0.38667,0.232 0.85067,0.42534 0.464,0.15466 0.85066,0.15466 v 1.93334 q -0.77333,0 -1.58533,-0.30933 -0.77333,-0.27067 -1.43067,-0.77334 -0.65733,-0.50267 -1.08267,-1.16 -0.38666,-0.696 -0.38666,-1.46933 z"
       style="font-size:38.6667px;font-family:Politica;-inkscape-font-specification:'Politica, Normal'"
       id="path3377" /><path
       d="m 812.58112,248.73617 q 0,-1.50801 -0.85067,-2.35867 -0.85066,-0.85067 -2.35867,-0.85067 -1.508,0 -2.35866,0.928 -0.85067,0.928 -0.85067,2.28134 v 0.77333 h -1.93334 v -0.77333 q 0,-1.16001 0.38667,-2.08801 0.42533,-0.96666 1.12133,-1.624 0.696,-0.696 1.62401,-1.044 0.928,-0.38667 2.01066,-0.38667 1.08267,0 2.01067,0.38667 0.928,0.348 1.624,1.044 0.696,0.65734 1.08267,1.624 0.42533,0.928 0.42533,2.08801 v 16.89734 h -1.93333 v -2.39733 q -0.96667,0.77333 -1.972,1.392 -0.85067,0.54133 -1.81734,0.96667 -0.928,0.42533 -1.70133,0.42533 -1.54667,0 -2.62934,-1.08267 -1.08266,-1.08267 -1.08266,-2.62933 v -2.66801 q 0,-2.04933 1.08266,-3.48 1.08267,-1.46933 2.74534,-2.12667 l 5.37467,-1.70133 z m -7.26934,13.57201 q 0,0.65733 0.54133,1.23733 0.58,0.54133 1.23734,0.54133 0.77333,0 1.70133,-0.50266 0.96667,-0.50267 1.81734,-1.12134 1.00533,-0.696 1.972,-1.58533 v -6.53467 l -4.56267,1.43066 q -1.35333,0.54134 -2.04934,1.58534 -0.65733,1.00533 -0.65733,2.28133 z"
       style="font-size:38.6667px;font-family:Politica;-inkscape-font-specification:'Politica, Normal'"
       id="path3379" /><path
       d="M 835.12377,265.63351 V 247.3055 q 0,-0.812 -0.58,-1.276 -0.54134,-0.50267 -1.19867,-0.50267 -0.77333,0 -1.856,0.50267 -1.044,0.464 -2.04934,1.08266 -1.16,0.696 -2.35866,1.58534 v 16.93601 h -1.93334 v -21.65335 h 1.93334 v 2.39734 q 1.19866,-0.77334 2.35866,-1.392 1.00534,-0.54134 2.04934,-0.96667 1.08267,-0.42534 1.856,-0.42534 1.31467,0 2.28134,0.812 1.00533,0.77334 1.31466,1.97201 h 0.116 q 1.19867,-0.77334 2.35867,-1.392 1.00534,-0.54134 2.04934,-0.96667 1.08267,-0.42534 1.856,-0.42534 1.54667,0 2.62933,1.08267 1.08267,1.08267 1.08267,2.62934 v 18.32801 h -1.93333 V 247.3055 q 0,-0.812 -0.58,-1.276 -0.54134,-0.50267 -1.19867,-0.50267 -0.77333,0 -1.856,0.50267 -1.044,0.464 -2.04934,1.08266 -1.16,0.696 -2.35867,1.58534 v 16.93601 z"
       style="font-size:38.6667px;font-family:Politica;-inkscape-font-specification:'Politica, Normal'"
       id="path3381" /><path
       d="m 859.52247,248.73617 q 0,-1.50801 -0.85067,-2.35867 -0.85067,-0.85067 -2.35867,-0.85067 -1.508,0 -2.35867,0.928 -0.85067,0.928 -0.85067,2.28134 v 0.77333 h -1.93333 v -0.77333 q 0,-1.16001 0.38667,-2.08801 0.42533,-0.96666 1.12133,-1.624 0.696,-0.696 1.624,-1.044 0.928,-0.38667 2.01067,-0.38667 1.08267,0 2.01067,0.38667 0.928,0.348 1.624,1.044 0.696,0.65734 1.08267,1.624 0.42533,0.928 0.42533,2.08801 v 16.89734 h -1.93333 v -2.39733 q -0.96667,0.77333 -1.97201,1.392 -0.85066,0.54133 -1.81733,0.96667 -0.928,0.42533 -1.70134,0.42533 -1.54666,0 -2.62933,-1.08267 -1.08267,-1.08267 -1.08267,-2.62933 v -2.66801 q 0,-2.04933 1.08267,-3.48 1.08267,-1.46933 2.74533,-2.12667 l 5.37468,-1.70133 z m -7.26934,13.57201 q 0,0.65733 0.54133,1.23733 0.58,0.54133 1.23733,0.54133 0.77334,0 1.70134,-0.50266 0.96667,-0.50267 1.81733,-1.12134 1.00534,-0.696 1.97201,-1.58533 v -6.53467 l -4.56268,1.43066 q -1.35333,0.54134 -2.04933,1.58534 -0.65733,1.00533 -0.65733,2.28133 z"
       style="font-size:38.6667px;font-family:Politica;-inkscape-font-specification:'Politica, Normal'"
       id="path3383" /><path
       d="m 868.02913,240.15216 h -1.93334 v -4.09867 h 1.93334 z m -1.93334,3.828 h 1.93334 v 18.32802 q 0,0.27066 0.232,0.61866 0.27067,0.30934 0.61867,0.58 0.38666,0.232 0.85066,0.42534 0.464,0.15466 0.85067,0.15466 v 1.93334 q -0.77333,0 -1.58533,-0.30933 -0.77334,-0.27067 -1.43067,-0.77334 -0.65734,-0.50267 -1.08267,-1.16 -0.38667,-0.696 -0.38667,-1.46933 z"
       style="font-size:38.6667px;font-family:Politica;-inkscape-font-specification:'Politica, Normal'"
       id="path3385" /><path
       d="m 873.48107,265.63351 v -21.65335 h 1.93334 v 2.39734 q 0.96667,-0.77334 1.972,-1.392 0.85067,-0.54134 1.77867,-0.96667 0.96667,-0.42534 1.74,-0.42534 1.54667,0 2.62934,1.08267 1.08266,1.08267 1.08266,2.62934 v 18.32801 h -1.93333 V 247.3055 q 0,-0.812 -0.58,-1.276 -0.54134,-0.50267 -1.19867,-0.50267 -0.77333,0 -1.74,0.50267 -0.928,0.464 -1.77867,1.08266 -1.00533,0.696 -1.972,1.58534 v 16.93601 z"
       style="font-size:38.6667px;font-family:Politica;-inkscape-font-specification:'Politica, Normal'"
       id="path3387" /></g></g></svg>
